<?xml version="1.0" encoding="UTF-8" standalone="no"?>
<!DOCTYPE svg PUBLIC "-//W3C//DTD SVG 1.1//EN" "http://www.w3.org/Graphics/SVG/1.1/DTD/svg11.dtd">
<!-- Created with Vectornator (http://vectornator.io/) -->
<svg height="100%" stroke-miterlimit="10" style="fill-rule:nonzero;clip-rule:evenodd;stroke-linecap:round;stroke-linejoin:round;" version="1.1" viewBox="0 0 256 70" width="100%" xml:space="preserve" xmlns="http://www.w3.org/2000/svg" xmlns:vectornator="http://vectornator.io" xmlns:xlink="http://www.w3.org/1999/xlink">
<defs/>
<clipPath id="ArtboardFrame">
<rect height="70" width="256" x="0" y="0"/>
</clipPath>
<g clip-path="url(#ArtboardFrame)" id="页面1" vectornator:layerName="页面1">
<g opacity="1">
<g opacity="1">
<path d="M13.1096 28.484C13.1096 18.7162 21.0279 10.7979 30.7957 10.7979C40.5635 10.7979 48.4819 18.7162 48.4819 28.484C48.4819 38.2519 40.5635 46.1702 30.7957 46.1702C21.0279 46.1702 13.1096 38.2519 13.1096 28.484Z" fill="#e95420" fill-rule="evenodd" opacity="1" stroke="none"/>
<path d="M46.6202 46.9149C46.6202 42.8021 49.9543 39.4681 54.067 39.4681C58.1798 39.4681 61.5138 42.8021 61.5138 46.9149C61.5138 51.0277 58.1798 54.3617 54.067 54.3617C49.9543 54.3617 46.6202 51.0277 46.6202 46.9149Z" fill="#e95420" fill-rule="evenodd" opacity="1" stroke="none"/>
<path d="M0.45 38.3511C0.45 35.2665 2.95054 32.766 6.03511 32.766C9.11968 32.766 11.6202 35.2665 11.6202 38.3511C11.6202 41.4356 9.11968 43.9362 6.03511 43.9362C2.95054 43.9362 0.45 41.4356 0.45 38.3511Z" fill="#e95420" fill-rule="evenodd" opacity="1" stroke="none"/>
<path d="M0.45 9.3085C0.45 4.16757 4.61756-2.66454e-15 9.75851-2.66454e-15C14.8995-2.66454e-15 19.067 4.16757 19.067 9.3085C19.067 14.4495 14.8995 18.617 9.75851 18.617C4.61756 18.617 0.45 14.4495 0.45 9.3085Z" fill="#e95420" fill-rule="evenodd" opacity="1" stroke="none"/>
<path d="M48.1096 11.1702C48.1096 5.00108 53.1107-2.66454e-15 59.2798-2.66454e-15C65.4489-2.66454e-15 70.45 5.00108 70.45 11.1702C70.45 17.3394 65.4489 22.3404 59.2798 22.3404C53.1107 22.3404 48.1096 17.3394 48.1096 11.1702Z" fill="#e95420" fill-rule="evenodd" opacity="1" stroke="none"/>
<path d="M8.64149 58.8298C8.64149 52.6607 13.6426 47.6596 19.8117 47.6596C25.9808 47.6596 30.9819 52.6607 30.9819 58.8298C30.9819 64.9989 25.9808 70 19.8117 70C13.6426 70 8.64149 64.9989 8.64149 58.8298Z" fill="#e95420" fill-rule="evenodd" opacity="1" stroke="none"/>
</g>
<g opacity="1">
<path d="M77.95 44.3C77.95 41.74 78.4 39.26 79.3 36.86C80.2 34.46 81.47 32.33 83.11 30.47C84.75 28.61 86.74 27.11 89.08 25.97C91.42 24.83 94.01 24.26 96.85 24.26C98.25 24.26 99.55 24.46 100.75 24.86C101.95 25.26 103 25.84 103.9 26.6C104.8 27.36 105.5 28.29 106 29.39C106.5 30.49 106.75 31.74 106.75 33.14C106.75 35.38 106.25 37.28 105.25 38.84C104.25 40.4 102.86 41.67 101.08 42.65C99.3 43.63 97.19 44.34 94.75 44.78C92.31 45.22 89.65 45.44 86.77 45.44C87.05 47.12 87.66 48.31 88.6 49.01C89.54 49.71 91.03 50.06 93.07 50.06C94.35 50.06 95.65 49.95 96.97 49.73C98.29 49.51 99.53 49.18 100.69 48.74L101.35 55.76C100.23 56.2 98.8 56.6 97.06 56.96C95.32 57.32 93.43 57.5 91.39 57.5C88.91 57.5 86.82 57.15 85.12 56.45C83.42 55.75 82.04 54.8 80.98 53.6C79.92 52.4 79.15 51 78.67 49.4C78.19 47.8 77.95 46.1 77.95 44.3ZM95.41 31.34C93.37 31.34 91.58 32.07 90.04 33.53C88.5 34.99 87.49 36.92 87.01 39.32C89.49 39.24 91.49 39.03 93.01 38.69C94.53 38.35 95.71 37.94 96.55 37.46C97.39 36.98 97.95 36.46 98.23 35.9C98.51 35.34 98.65 34.78 98.65 34.22C98.65 32.3 97.57 31.34 95.41 31.34Z" fill="#e95420" fill-rule="nonzero" opacity="1" stroke="none"/>
<path d="M118.45 49.7C119.13 49.86 119.97 49.94 120.97 49.94C122.53 49.94 123.95 49.65 125.23 49.07C126.51 48.49 127.6 47.68 128.5 46.64C129.4 45.6 130.1 44.35 130.6 42.89C131.1 41.43 131.35 39.82 131.35 38.06C131.35 36.34 130.97 34.88 130.21 33.68C129.45 32.48 128.13 31.88 126.25 31.88C124.97 31.88 123.77 32 122.65 32.24L118.45 49.7ZM140.23 37.4C140.23 40.32 139.75 42.99 138.79 45.41C137.83 47.83 136.5 49.92 134.8 51.68C133.1 53.44 131.06 54.81 128.68 55.79C126.3 56.77 123.71 57.26 120.91 57.26C119.55 57.26 118.19 57.14 116.83 56.9L114.13 67.76L105.25 67.76L115.21 26.24C116.81 25.76 118.64 25.33 120.7 24.95C122.76 24.57 124.99 24.38 127.39 24.38C129.63 24.38 131.56 24.72 133.18 25.4C134.8 26.08 136.13 27.01 137.17 28.19C138.21 29.37 138.98 30.75 139.48 32.33C139.98 33.91 140.23 35.6 140.23 37.4Z" fill="#e95420" fill-rule="nonzero" opacity="1" stroke="none"/>
<path d="M166.75 32.78C165.95 32.58 165.16 32.39 164.38 32.21C163.6 32.03 162.45 31.94 160.93 31.94C160.37 31.94 159.75 31.99 159.07 32.09C158.39 32.19 157.83 32.3 157.39 32.42L151.57 56.66L142.63 56.66L149.83 26.78C151.55 26.22 153.48 25.69 155.62 25.19C157.76 24.69 160.17 24.44 162.85 24.44C163.85 24.44 164.96 24.53 166.18 24.71C167.4 24.89 168.47 25.18 169.39 25.58L166.75 32.78Z" fill="#e95420" fill-rule="nonzero" opacity="1" stroke="none"/>
<path d="M168.79 44.3C168.79 41.74 169.24 39.26 170.14 36.86C171.04 34.46 172.31 32.33 173.95 30.47C175.59 28.61 177.58 27.11 179.92 25.97C182.26 24.83 184.85 24.26 187.69 24.26C189.09 24.26 190.39 24.46 191.59 24.86C192.79 25.26 193.84 25.84 194.74 26.6C195.64 27.36 196.34 28.29 196.84 29.39C197.34 30.49 197.59 31.74 197.59 33.14C197.59 35.38 197.09 37.28 196.09 38.84C195.09 40.4 193.7 41.67 191.92 42.65C190.14 43.63 188.03 44.34 185.59 44.78C183.15 45.22 180.49 45.44 177.61 45.44C177.89 47.12 178.5 48.31 179.44 49.01C180.38 49.71 181.87 50.06 183.91 50.06C185.19 50.06 186.49 49.95 187.81 49.73C189.13 49.51 190.37 49.18 191.53 48.74L192.19 55.76C191.07 56.2 189.64 56.6 187.9 56.96C186.16 57.32 184.27 57.5 182.23 57.5C179.75 57.5 177.66 57.15 175.96 56.45C174.26 55.75 172.88 54.8 171.82 53.6C170.76 52.4 169.99 51 169.51 49.4C169.03 47.8 168.79 46.1 168.79 44.3ZM186.25 31.34C184.21 31.34 182.42 32.07 180.88 33.53C179.34 34.99 178.33 36.92 177.85 39.32C180.33 39.24 182.33 39.03 183.85 38.69C185.37 38.35 186.55 37.94 187.39 37.46C188.23 36.98 188.79 36.46 189.07 35.9C189.35 35.34 189.49 34.78 189.49 34.22C189.49 32.3 188.41 31.34 186.25 31.34Z" fill="#e95420" fill-rule="nonzero" opacity="1" stroke="none"/>
<path d="M209.05 50.3C211.09 50.3 212.49 50.01 213.25 49.43C214.01 48.85 214.39 48.22 214.39 47.54C214.39 47.1 214.32 46.72 214.18 46.4C214.04 46.08 213.81 45.78 213.49 45.5C213.17 45.22 212.73 44.93 212.17 44.63C211.61 44.33 210.89 43.98 210.01 43.58C209.01 43.14 208.07 42.67 207.19 42.17C206.31 41.67 205.54 41.07 204.88 40.37C204.22 39.67 203.7 38.87 203.32 37.97C202.94 37.07 202.75 36 202.75 34.76C202.75 31.52 203.94 28.96 206.32 27.08C208.7 25.2 212.17 24.26 216.73 24.26C218.89 24.26 220.81 24.5 222.49 24.98C224.17 25.46 225.53 25.98 226.57 26.54L223.51 33.2C222.67 32.76 221.59 32.34 220.27 31.94C218.95 31.54 217.65 31.34 216.37 31.34C215.81 31.34 215.26 31.37 214.72 31.43C214.18 31.49 213.68 31.62 213.22 31.82C212.76 32.02 212.39 32.3 212.11 32.66C211.83 33.02 211.69 33.5 211.69 34.1C211.69 34.9 212 35.5 212.62 35.9C213.24 36.3 214.11 36.78 215.23 37.34C216.79 38.1 218.09 38.8 219.13 39.44C220.17 40.08 221 40.76 221.62 41.48C222.24 42.2 222.69 43.02 222.97 43.94C223.25 44.86 223.39 45.94 223.39 47.18C223.39 48.46 223.12 49.72 222.58 50.96C222.04 52.2 221.19 53.3 220.03 54.26C218.87 55.22 217.39 56 215.59 56.6C213.79 57.2 211.63 57.5 209.11 57.5C207.55 57.5 206.14 57.4 204.88 57.2C203.62 57 202.51 56.75 201.55 56.45C200.59 56.15 199.78 55.84 199.12 55.52C198.46 55.2 197.95 54.94 197.59 54.74L200.65 47.9C201.33 48.3 202.39 48.8 203.83 49.4C205.27 50 207.01 50.3 209.05 50.3Z" fill="#e95420" fill-rule="nonzero" opacity="1" stroke="none"/>
<path d="M238.03 50.3C240.07 50.3 241.47 50.01 242.23 49.43C242.99 48.85 243.37 48.22 243.37 47.54C243.37 47.1 243.3 46.72 243.16 46.4C243.02 46.08 242.79 45.78 242.47 45.5C242.15 45.22 241.71 44.93 241.15 44.63C240.59 44.33 239.87 43.98 238.99 43.58C237.99 43.14 237.05 42.67 236.17 42.17C235.29 41.67 234.52 41.07 233.86 40.37C233.2 39.67 232.68 38.87 232.3 37.97C231.92 37.07 231.73 36 231.73 34.76C231.73 31.52 232.92 28.96 235.3 27.08C237.68 25.2 241.15 24.26 245.71 24.26C247.87 24.26 249.79 24.5 251.47 24.98C253.15 25.46 254.51 25.98 255.55 26.54L252.49 33.2C251.65 32.76 250.57 32.34 249.25 31.94C247.93 31.54 246.63 31.34 245.35 31.34C244.79 31.34 244.24 31.37 243.7 31.43C243.16 31.49 242.66 31.62 242.2 31.82C241.74 32.02 241.37 32.3 241.09 32.66C240.81 33.02 240.67 33.5 240.67 34.1C240.67 34.9 240.98 35.5 241.6 35.9C242.22 36.3 243.09 36.78 244.21 37.34C245.77 38.1 247.07 38.8 248.11 39.44C249.15 40.08 249.98 40.76 250.6 41.48C251.22 42.2 251.67 43.02 251.95 43.94C252.23 44.86 252.37 45.94 252.37 47.18C252.37 48.46 252.1 49.72 251.56 50.96C251.02 52.2 250.17 53.3 249.01 54.26C247.85 55.22 246.37 56 244.57 56.6C242.77 57.2 240.61 57.5 238.09 57.5C236.53 57.5 235.12 57.4 233.86 57.2C232.6 57 231.49 56.75 230.53 56.45C229.57 56.15 228.76 55.84 228.1 55.52C227.44 55.2 226.93 54.94 226.57 54.74L229.63 47.9C230.31 48.3 231.37 48.8 232.81 49.4C234.25 50 235.99 50.3 238.03 50.3Z" fill="#e95420" fill-rule="nonzero" opacity="1" stroke="none"/>
</g>
</g>
</g>
</svg>
